<mxfile host="Electron" agent="Mozilla/5.0 (Windows NT 10.0; Win64; x64) AppleWebKit/537.36 (KHTML, like Gecko) draw.io/26.1.1 Chrome/132.0.6834.210 Electron/34.3.3 Safari/537.36" version="26.1.1">
  <diagram id="kgpKYQtTHZ0yAKxKKP6v" name="Page-1">
    <mxGraphModel dx="2848" dy="814" grid="1" gridSize="10" guides="1" tooltips="1" connect="1" arrows="1" fold="1" page="1" pageScale="1" pageWidth="1654" pageHeight="1169" background="#ffffff" math="0" shadow="0">
      <root>
        <mxCell id="0" />
        <mxCell id="1" parent="0" />
        <mxCell id="ABB3tMrrP6x_HUb50umq-8" value="" style="swimlane;html=1;startSize=20;fontStyle=0;collapsible=0;horizontal=1;swimlaneLine=1;strokeWidth=2;swimlaneFillColor=#ffffff;whiteSpace=wrap;" parent="1" vertex="1">
          <mxGeometry x="-90" y="290" width="1080" height="450" as="geometry" />
        </mxCell>
        <mxCell id="ABB3tMrrP6x_HUb50umq-10" value="PC" style="swimlane;html=1;startSize=20;fontStyle=0;collapsible=0;horizontal=0;swimlaneLine=1;swimlaneFillColor=#ffffff;strokeWidth=2;whiteSpace=wrap;" parent="ABB3tMrrP6x_HUb50umq-8" vertex="1">
          <mxGeometry y="130" width="1080" height="180" as="geometry" />
        </mxCell>
        <mxCell id="ABB3tMrrP6x_HUb50umq-18" value="" style="group" parent="ABB3tMrrP6x_HUb50umq-10" vertex="1" connectable="0">
          <mxGeometry x="60" y="60" width="120" height="80" as="geometry" />
        </mxCell>
        <mxCell id="ABB3tMrrP6x_HUb50umq-15" value="" style="strokeWidth=2;html=1;shape=mxgraph.flowchart.document2;whiteSpace=wrap;size=0.25;" parent="ABB3tMrrP6x_HUb50umq-18" vertex="1">
          <mxGeometry x="20" width="100" height="60" as="geometry" />
        </mxCell>
        <mxCell id="ABB3tMrrP6x_HUb50umq-16" value="" style="strokeWidth=2;html=1;shape=mxgraph.flowchart.document2;whiteSpace=wrap;size=0.25;" parent="ABB3tMrrP6x_HUb50umq-18" vertex="1">
          <mxGeometry x="10" y="10" width="100" height="60" as="geometry" />
        </mxCell>
        <mxCell id="ABB3tMrrP6x_HUb50umq-17" value="STATA-Dateien&lt;div&gt;(.dta)&lt;div&gt;&lt;br&gt;&lt;/div&gt;&lt;/div&gt;" style="strokeWidth=2;html=1;shape=mxgraph.flowchart.document2;whiteSpace=wrap;size=0.38333333333333336;" parent="ABB3tMrrP6x_HUb50umq-18" vertex="1">
          <mxGeometry y="20" width="100" height="60" as="geometry" />
        </mxCell>
        <mxCell id="ABB3tMrrP6x_HUb50umq-12" value="Snowflake" style="swimlane;html=1;startSize=20;fontStyle=0;collapsible=0;horizontal=0;swimlaneLine=1;swimlaneFillColor=#ffffff;strokeWidth=2;whiteSpace=wrap;" parent="ABB3tMrrP6x_HUb50umq-10" vertex="1">
          <mxGeometry y="180" width="1080" height="140" as="geometry" />
        </mxCell>
        <mxCell id="ABB3tMrrP6x_HUb50umq-76" value="" style="group" parent="ABB3tMrrP6x_HUb50umq-12" vertex="1" connectable="0">
          <mxGeometry x="910" y="10" width="120" height="104" as="geometry" />
        </mxCell>
        <mxCell id="ABB3tMrrP6x_HUb50umq-73" value="" style="rounded=0;whiteSpace=wrap;html=1;" parent="ABB3tMrrP6x_HUb50umq-76" vertex="1">
          <mxGeometry width="100" height="84" as="geometry" />
        </mxCell>
        <mxCell id="ABB3tMrrP6x_HUb50umq-74" value="" style="rounded=0;whiteSpace=wrap;html=1;" parent="ABB3tMrrP6x_HUb50umq-76" vertex="1">
          <mxGeometry x="10" y="10" width="100" height="84" as="geometry" />
        </mxCell>
        <mxCell id="ABB3tMrrP6x_HUb50umq-31" value="Table" style="shape=table;startSize=20;container=1;collapsible=0;childLayout=tableLayout;fontSize=16;fillStyle=solid;swimlaneFillColor=none;" parent="ABB3tMrrP6x_HUb50umq-76" vertex="1">
          <mxGeometry x="20" y="24" width="100" height="80" as="geometry" />
        </mxCell>
        <mxCell id="ABB3tMrrP6x_HUb50umq-32" value="" style="shape=tableRow;horizontal=0;startSize=0;swimlaneHead=0;swimlaneBody=0;strokeColor=inherit;top=0;left=0;bottom=0;right=0;collapsible=0;dropTarget=0;fillColor=none;points=[[0,0.5],[1,0.5]];portConstraint=eastwest;fontSize=16;" parent="ABB3tMrrP6x_HUb50umq-31" vertex="1">
          <mxGeometry y="20" width="100" height="20" as="geometry" />
        </mxCell>
        <mxCell id="ABB3tMrrP6x_HUb50umq-33" value="" style="shape=partialRectangle;html=1;whiteSpace=wrap;connectable=0;strokeColor=inherit;overflow=hidden;fillColor=none;top=0;left=0;bottom=0;right=0;pointerEvents=1;fontSize=16;" parent="ABB3tMrrP6x_HUb50umq-32" vertex="1">
          <mxGeometry width="33" height="20" as="geometry">
            <mxRectangle width="33" height="20" as="alternateBounds" />
          </mxGeometry>
        </mxCell>
        <mxCell id="ABB3tMrrP6x_HUb50umq-34" value="" style="shape=partialRectangle;html=1;whiteSpace=wrap;connectable=0;strokeColor=inherit;overflow=hidden;fillColor=none;top=0;left=0;bottom=0;right=0;pointerEvents=1;fontSize=16;" parent="ABB3tMrrP6x_HUb50umq-32" vertex="1">
          <mxGeometry x="33" width="34" height="20" as="geometry">
            <mxRectangle width="34" height="20" as="alternateBounds" />
          </mxGeometry>
        </mxCell>
        <mxCell id="ABB3tMrrP6x_HUb50umq-35" value="" style="shape=partialRectangle;html=1;whiteSpace=wrap;connectable=0;strokeColor=inherit;overflow=hidden;fillColor=none;top=0;left=0;bottom=0;right=0;pointerEvents=1;fontSize=16;" parent="ABB3tMrrP6x_HUb50umq-32" vertex="1">
          <mxGeometry x="67" width="33" height="20" as="geometry">
            <mxRectangle width="33" height="20" as="alternateBounds" />
          </mxGeometry>
        </mxCell>
        <mxCell id="ABB3tMrrP6x_HUb50umq-36" value="" style="shape=tableRow;horizontal=0;startSize=0;swimlaneHead=0;swimlaneBody=0;strokeColor=inherit;top=0;left=0;bottom=0;right=0;collapsible=0;dropTarget=0;fillColor=none;points=[[0,0.5],[1,0.5]];portConstraint=eastwest;fontSize=16;" parent="ABB3tMrrP6x_HUb50umq-31" vertex="1">
          <mxGeometry y="40" width="100" height="20" as="geometry" />
        </mxCell>
        <mxCell id="ABB3tMrrP6x_HUb50umq-37" value="" style="shape=partialRectangle;html=1;whiteSpace=wrap;connectable=0;strokeColor=inherit;overflow=hidden;fillColor=none;top=0;left=0;bottom=0;right=0;pointerEvents=1;fontSize=16;" parent="ABB3tMrrP6x_HUb50umq-36" vertex="1">
          <mxGeometry width="33" height="20" as="geometry">
            <mxRectangle width="33" height="20" as="alternateBounds" />
          </mxGeometry>
        </mxCell>
        <mxCell id="ABB3tMrrP6x_HUb50umq-38" value="" style="shape=partialRectangle;html=1;whiteSpace=wrap;connectable=0;strokeColor=inherit;overflow=hidden;fillColor=none;top=0;left=0;bottom=0;right=0;pointerEvents=1;fontSize=16;" parent="ABB3tMrrP6x_HUb50umq-36" vertex="1">
          <mxGeometry x="33" width="34" height="20" as="geometry">
            <mxRectangle width="34" height="20" as="alternateBounds" />
          </mxGeometry>
        </mxCell>
        <mxCell id="ABB3tMrrP6x_HUb50umq-39" value="" style="shape=partialRectangle;html=1;whiteSpace=wrap;connectable=0;strokeColor=inherit;overflow=hidden;fillColor=none;top=0;left=0;bottom=0;right=0;pointerEvents=1;fontSize=16;" parent="ABB3tMrrP6x_HUb50umq-36" vertex="1">
          <mxGeometry x="67" width="33" height="20" as="geometry">
            <mxRectangle width="33" height="20" as="alternateBounds" />
          </mxGeometry>
        </mxCell>
        <mxCell id="ABB3tMrrP6x_HUb50umq-40" value="" style="shape=tableRow;horizontal=0;startSize=0;swimlaneHead=0;swimlaneBody=0;strokeColor=inherit;top=0;left=0;bottom=0;right=0;collapsible=0;dropTarget=0;fillColor=none;points=[[0,0.5],[1,0.5]];portConstraint=eastwest;fontSize=16;" parent="ABB3tMrrP6x_HUb50umq-31" vertex="1">
          <mxGeometry y="60" width="100" height="20" as="geometry" />
        </mxCell>
        <mxCell id="ABB3tMrrP6x_HUb50umq-41" value="" style="shape=partialRectangle;html=1;whiteSpace=wrap;connectable=0;strokeColor=inherit;overflow=hidden;fillColor=none;top=0;left=0;bottom=0;right=0;pointerEvents=1;fontSize=16;" parent="ABB3tMrrP6x_HUb50umq-40" vertex="1">
          <mxGeometry width="33" height="20" as="geometry">
            <mxRectangle width="33" height="20" as="alternateBounds" />
          </mxGeometry>
        </mxCell>
        <mxCell id="ABB3tMrrP6x_HUb50umq-42" value="" style="shape=partialRectangle;html=1;whiteSpace=wrap;connectable=0;strokeColor=inherit;overflow=hidden;fillColor=none;top=0;left=0;bottom=0;right=0;pointerEvents=1;fontSize=16;" parent="ABB3tMrrP6x_HUb50umq-40" vertex="1">
          <mxGeometry x="33" width="34" height="20" as="geometry">
            <mxRectangle width="34" height="20" as="alternateBounds" />
          </mxGeometry>
        </mxCell>
        <mxCell id="ABB3tMrrP6x_HUb50umq-43" value="" style="shape=partialRectangle;html=1;whiteSpace=wrap;connectable=0;strokeColor=inherit;overflow=hidden;fillColor=none;top=0;left=0;bottom=0;right=0;pointerEvents=1;fontSize=16;" parent="ABB3tMrrP6x_HUb50umq-40" vertex="1">
          <mxGeometry x="67" width="33" height="20" as="geometry">
            <mxRectangle width="33" height="20" as="alternateBounds" />
          </mxGeometry>
        </mxCell>
        <mxCell id="ABB3tMrrP6x_HUb50umq-85" value="&lt;span style=&quot;font-size: 14px; font-weight: 700; text-align: right; text-wrap-mode: nowrap; background-color: rgb(255, 255, 255);&quot;&gt;Python-Programm:&amp;nbsp;import_HS12_directly.stata.py&lt;/span&gt;" style="rounded=1;whiteSpace=wrap;html=1;" parent="ABB3tMrrP6x_HUb50umq-10" vertex="1">
          <mxGeometry x="350" y="15" width="360" height="140" as="geometry" />
        </mxCell>
        <mxCell id="ABB3tMrrP6x_HUb50umq-84" value="" style="endArrow=classic;html=1;rounded=0;entryX=0;entryY=0.5;entryDx=0;entryDy=0;strokeWidth=3;labelPosition=left;verticalLabelPosition=middle;align=right;verticalAlign=middle;fontSize=14;fontStyle=1" parent="ABB3tMrrP6x_HUb50umq-10" target="ABB3tMrrP6x_HUb50umq-85" edge="1">
          <mxGeometry width="50" height="50" relative="1" as="geometry">
            <mxPoint x="180" y="85" as="sourcePoint" />
            <mxPoint x="528" y="180" as="targetPoint" />
            <Array as="points" />
          </mxGeometry>
        </mxCell>
        <mxCell id="ABB3tMrrP6x_HUb50umq-86" value="Laden" style="endArrow=classic;html=1;rounded=0;exitX=0.5;exitY=1;exitDx=0;exitDy=0;entryX=0;entryY=0.5;entryDx=0;entryDy=0;strokeWidth=3;labelPosition=left;verticalLabelPosition=middle;align=right;verticalAlign=middle;fontSize=14;fontStyle=1;" parent="ABB3tMrrP6x_HUb50umq-10" source="ABB3tMrrP6x_HUb50umq-85" target="ABB3tMrrP6x_HUb50umq-73" edge="1">
          <mxGeometry width="50" height="50" relative="1" as="geometry">
            <mxPoint x="380" y="60" as="sourcePoint" />
            <mxPoint x="530" y="180" as="targetPoint" />
            <Array as="points">
              <mxPoint x="530" y="232" />
            </Array>
          </mxGeometry>
        </mxCell>
        <mxCell id="ABB3tMrrP6x_HUb50umq-28" value="CREATE TABLE-Befehle" style="shape=document;whiteSpace=wrap;html=1;boundedLbl=1;" parent="ABB3tMrrP6x_HUb50umq-10" vertex="1">
          <mxGeometry x="797" y="45" width="120" height="80" as="geometry" />
        </mxCell>
        <mxCell id="ABB3tMrrP6x_HUb50umq-77" value="Ausführung" style="edgeStyle=orthogonalEdgeStyle;rounded=0;orthogonalLoop=1;jettySize=auto;html=1;exitX=1;exitY=0.5;exitDx=0;exitDy=0;entryX=0.5;entryY=0;entryDx=0;entryDy=0;strokeWidth=2;dashed=1;fontSize=13;fontStyle=1" parent="ABB3tMrrP6x_HUb50umq-10" source="ABB3tMrrP6x_HUb50umq-28" target="ABB3tMrrP6x_HUb50umq-73" edge="1">
          <mxGeometry relative="1" as="geometry">
            <mxPoint x="330" y="30" as="sourcePoint" />
            <mxPoint x="380" y="-50" as="targetPoint" />
          </mxGeometry>
        </mxCell>
        <mxCell id="ABB3tMrrP6x_HUb50umq-30" value="Ableiten" style="edgeStyle=orthogonalEdgeStyle;rounded=0;orthogonalLoop=1;jettySize=auto;html=1;entryX=0;entryY=0.5;entryDx=0;entryDy=0;strokeWidth=2;dashed=1;fontSize=12;fontStyle=1;" parent="ABB3tMrrP6x_HUb50umq-10" target="ABB3tMrrP6x_HUb50umq-28" edge="1">
          <mxGeometry relative="1" as="geometry">
            <mxPoint x="711" y="85" as="sourcePoint" />
          </mxGeometry>
        </mxCell>
        <mxCell id="ABB3tMrrP6x_HUb50umq-11" value="Operator" style="swimlane;html=1;startSize=20;fontStyle=0;collapsible=0;horizontal=0;swimlaneLine=1;swimlaneFillColor=#ffffff;strokeWidth=2;whiteSpace=wrap;" parent="ABB3tMrrP6x_HUb50umq-8" vertex="1">
          <mxGeometry y="20" width="1080" height="110" as="geometry" />
        </mxCell>
        <mxCell id="TfftyZI7j9FXrv--hsRl-2" value="Start" style="ellipse;whiteSpace=wrap;html=1;aspect=fixed;" parent="ABB3tMrrP6x_HUb50umq-11" vertex="1">
          <mxGeometry x="500" y="35" width="50" height="50" as="geometry" />
        </mxCell>
        <mxCell id="ABB3tMrrP6x_HUb50umq-92" value="&lt;font style=&quot;font-size: 14px;&quot;&gt;1&lt;/font&gt;" style="ellipse;whiteSpace=wrap;html=1;aspect=fixed;fillColor=#d80073;strokeColor=#A50040;fontColor=#ffffff;" parent="ABB3tMrrP6x_HUb50umq-11" vertex="1">
          <mxGeometry x="480" y="20" width="30" height="30" as="geometry" />
        </mxCell>
        <mxCell id="TfftyZI7j9FXrv--hsRl-3" value="&lt;div&gt;&lt;br&gt;&lt;/div&gt;&lt;div&gt;&lt;br&gt;&lt;/div&gt;" style="edgeStyle=orthogonalEdgeStyle;rounded=0;orthogonalLoop=1;jettySize=auto;html=1;entryX=0.483;entryY=0;entryDx=0;entryDy=0;strokeWidth=2;dashed=1;fontSize=12;fontStyle=1;exitX=0.5;exitY=1;exitDx=0;exitDy=0;entryPerimeter=0;" parent="ABB3tMrrP6x_HUb50umq-8" source="TfftyZI7j9FXrv--hsRl-2" target="ABB3tMrrP6x_HUb50umq-85" edge="1">
          <mxGeometry relative="1" as="geometry">
            <mxPoint x="721" y="235" as="sourcePoint" />
            <mxPoint x="807" y="235" as="targetPoint" />
          </mxGeometry>
        </mxCell>
      </root>
    </mxGraphModel>
  </diagram>
</mxfile>
